<?xml version="1.0" encoding="UTF-8"?>
<svg width="537px" height="63px" viewBox="0 0 537 63" version="1.1" xmlns="http://www.w3.org/2000/svg" xmlns:xlink="http://www.w3.org/1999/xlink">
    <!-- Generator: Sketch 48.1 (47250) - http://www.bohemiancoding.com/sketch -->
    <title>CompanionWord</title>
    <desc>Created with Sketch.</desc>
    <defs></defs>
    <g id="Page-1" stroke="none" stroke-width="1" fill="none" fill-rule="evenodd">
        <g id="CompanionWord" fill-rule="nonzero">
            <g id="Group" transform="translate(80.000000, 4.500000)" fill="#000000">
                <path d="M101.45,27 C101.45,43.45 91.95,53.75 76.7,53.75 C61.4,53.75 51.9,43.45 51.9,27 C51.9,10.55 61.4,0.25 76.7,0.25 C91.95,0.25 101.45,10.55 101.45,27 Z M64.95,27 C64.95,37.05 69.25,42.95 76.75,42.95 C84.15,42.95 88.45,37.05 88.45,27 C88.45,16.95 84.15,11.05 76.75,11.05 C69.25,11.05 64.95,16.95 64.95,27 Z" id="Shape"></path>
                <path d="M343.25,52.6 L333.8,52.6 C332.95,52.6 332.3,51.95 332.3,51.1 L332.3,2.9 C332.3,2.1 332.95,1.4 333.8,1.4 L343.25,1.4 C344.1,1.4 344.75,2.1 344.75,2.9 L344.75,51.1 C344.75,51.95 344.05,52.6 343.25,52.6 Z" id="Shape"></path>
                <path d="M402.2,27 C402.2,43.45 392.7,53.75 377.45,53.75 C362.15,53.75 352.65,43.45 352.65,27 C352.65,10.55 362.15,0.25 377.45,0.25 C392.7,0.25 402.2,10.55 402.2,27 Z M365.65,27 C365.65,37.05 369.95,42.95 377.45,42.95 C384.85,42.95 389.15,37.05 389.15,27 C389.15,16.95 384.85,11.05 377.45,11.05 C370,11.05 365.65,16.95 365.65,27 Z" id="Shape"></path>
                <path d="M258.65,52.6 L269.2,52.6 C269.85,52.5 270.25,52.25 270.3,51.6 L253.7,2.95 C253.3,2.15 252.95,1.65 252.15,1.4 L238,1.4 C237.05,1.65 236.7,2.4 236.2,3.4 L219.7,51.7 C219.75,52.3 220.15,52.5 220.8,52.6 L231.35,52.6 C232.05,52.45 232.5,52.1 232.8,51.6 L235.8,41.75 L254.35,41.75 L257.3,51.7 C257.55,52.15 257.95,52.5 258.65,52.6 Z M238.8,31.55 L239.8,28.1 C241.6,22 243.3,15.65 244.85,9.5 L245,9.5 C246.5,15.7 248.3,22 250.2,28.1 L251.3,31.55 L238.8,31.55 Z" id="Shape"></path>
                <path d="M202.7,1.4 L183.1,1.4 C182.7,1.55 182.35,1.9 182.25,2.35 L182.25,51.6 C182.4,52.1 182.8,52.45 183.3,52.6 L193.7,52.6 C194.15,52.5 194.5,52.15 194.7,51.7 L194.7,35.4 L202.75,35.4 C215.75,35.4 222.25,28.7 222.25,18.45 C222.2,8.1 215.75,1.4 202.7,1.4 Z M201,25.4 L194.65,25.4 L194.65,11.4 L201,11.4 C206.95,11.4 209.5,14.05 209.5,18.45 C209.5,22.75 206.95,25.4 201,25.4 Z" id="Shape"></path>
                <path d="M46.25,35.35 C46.25,34.5 46.05,34.05 45.4,33.9 L34.5,33.9 C33.95,34.05 33.6,34.4 33.3,34.85 C32.35,40 28.9,42.95 23.8,42.95 C17.2,42.95 13,36.9 13,27 C13,17.1 17.15,11.05 23.95,11.05 C29,11.05 32.35,13.9 33.25,18.85 C33.55,19.3 33.9,19.65 34.4,19.85 L45.3,19.85 C45.85,19.75 46.1,19.45 46.2,18.95 C45.3,7.55 36.85,0.3 23.95,0.3 C9.15,0.3 -1.13686838e-13,10.45 -1.13686838e-13,27.05 C-1.13686838e-13,43.65 9.05,53.8 23.8,53.8 C36.15,53.8 44.5,47.4 46.2,35.9 L46.2,35.35 L46.25,35.35 Z" id="Shape"></path>
                <path d="M160,8.65 C159.7,14.9 159.55,21.25 159.55,27.55 L159.55,51.5 C159.7,52.05 160.1,52.45 160.6,52.6 L170.25,52.6 C170.75,52.45 171.1,52.1 171.25,51.65 L171.25,2.2 C171.1,1.85 170.8,1.55 170.45,1.4 L152.5,1.4 C151.75,1.6 151.4,2.05 151.05,2.75 L144.8,24.15 C143.05,30.4 141.55,36.75 140.4,43 L140.25,43 C139.05,36.75 137.5,30.4 135.8,24.15 L129.6,2.7 C129.25,2.05 128.85,1.6 128.15,1.4 L110.2,1.4 C109.75,1.6 109.45,1.95 109.3,2.4 L109.3,51.5 C109.45,52 109.85,52.45 110.35,52.55 L120,52.55 C120.5,52.4 120.85,52.05 121.05,51.55 L121.05,27.5 C121.05,21.15 120.9,14.85 120.6,8.6 L120.75,8.6 C122.2,14.8 123.9,21.1 125.65,27.2 L132.65,51.6 C132.95,52.05 133.3,52.35 133.85,52.55 L146.65,52.55 C147.25,52.4 147.6,52.05 147.9,51.55 L154.9,27.2 C156.65,21.1 158.35,14.75 159.8,8.6 L160,8.6 L160,8.65 Z" id="Shape"></path>
                <path d="M304.55,52.6 L320.4,52.6 C320.95,52.45 321.35,52 321.45,51.45 L321.45,2.55 C321.3,1.95 320.8,1.45 320.2,1.35 L310.8,1.35 C310.15,1.45 309.65,1.9 309.55,2.5 L309.55,20.45 C309.55,27.65 309.7,34.85 310.15,42 L310,42 C307.4,35.1 304.55,28.1 301.65,21.5 L293.3,2.7 C292.85,1.9 292.4,1.4 291.35,1.3 L276.05,1.3 C275.45,1.4 274.95,1.8 274.8,2.4 L274.8,51.45 C274.95,51.95 275.35,52.35 275.85,52.5 L285.65,52.5 C286.2,52.35 286.6,51.9 286.7,51.4 L286.7,33.4 C286.7,26.2 286.5,19 286.1,11.85 L286.25,11.85 C288.75,18.75 291.65,25.75 294.6,32.35 L302.9,51.2 C303.25,51.95 303.65,52.45 304.55,52.6 Z" id="Shape"></path>
                <path d="M439.95,52.6 L455.8,52.6 C456.3,52.45 456.75,52.05 456.85,51.5 L456.85,2.5 C456.7,1.9 456.2,1.45 455.6,1.35 L446.2,1.35 C445.5,1.45 445,2 444.9,2.65 L444.9,20.45 C444.9,27.65 445.05,34.85 445.5,42 L445.35,42 C442.75,35.1 439.9,28.1 437,21.5 L428.6,2.55 C428.2,1.85 427.7,1.4 426.7,1.3 L411.4,1.3 C410.8,1.4 410.25,1.85 410.15,2.45 L410.15,51.5 C410.25,52.05 410.7,52.45 411.2,52.6 L421,52.6 C421.5,52.45 421.9,52.05 422.05,51.55 L422.05,33.5 C422.05,26.3 421.85,19.1 421.45,11.95 L421.6,11.95 C424.1,18.85 427,25.85 429.95,32.45 L438.15,51.1 C438.6,51.85 439,52.4 439.95,52.6 Z" id="Shape"></path>
            </g>
            <g id="Group">
                <path d="M60.25,0.25 L10.25,0.25 L2.75,0.25 C1.35,0.25 0.25,1.35 0.25,2.75 L0.25,10.25 L0.25,12.75 L0.25,50.25 L0.25,52.75 L0.25,60.25 C0.25,61.65 1.35,62.75 2.75,62.75 L10.25,62.75 L47.75,62.75 C49.15,62.75 50.25,61.65 50.25,60.25 L50.25,52.75 C50.25,51.35 49.15,50.25 47.75,50.25 L12.75,50.25 L12.75,12.75 L60.25,12.75 C61.65,12.75 62.75,11.65 62.75,10.25 L62.75,2.75 C62.75,1.4 61.6,0.25 60.25,0.25 Z" id="Shape" fill="#76C4FE"></path>
                <path d="M10.25,0.25 L2.75,0.25 C1.35,0.25 0.25,1.35 0.25,2.75 L0.25,10.25 L0.25,12.75 L0.25,25.25 L12.75,25.25 L12.75,12.75 L37.8,12.75 L37.8,0.25 L10.25,0.25 Z" id="Shape" fill="#6396F9"></path>
                <path d="M60.25,0.25 L37.75,0.25 L37.75,12.75 L60.25,12.75 C61.65,12.75 62.75,11.65 62.75,10.25 L62.75,2.75 C62.75,1.4 61.6,0.25 60.25,0.25 Z" id="Shape" fill="#4F67F4"></path>
            </g>
        </g>
    </g>
</svg>